<mxfile host="65bd71144e">
    <diagram id="HE0b7Hjp2eeB02zNvmpq" name="Page-1">
        <mxGraphModel dx="650" dy="486" grid="1" gridSize="10" guides="1" tooltips="1" connect="1" arrows="1" fold="1" page="1" pageScale="1" pageWidth="850" pageHeight="1100" math="0" shadow="0">
            <root>
                <mxCell id="0"/>
                <mxCell id="1" parent="0"/>
                <mxCell id="2" value="" style="rounded=0;whiteSpace=wrap;html=1;" vertex="1" parent="1">
                    <mxGeometry x="70" y="20" width="640" height="310" as="geometry"/>
                </mxCell>
                <mxCell id="5" style="edgeStyle=none;html=1;entryX=0.5;entryY=1;entryDx=0;entryDy=0;entryPerimeter=0;" edge="1" parent="1" source="3" target="4">
                    <mxGeometry relative="1" as="geometry"/>
                </mxCell>
                <mxCell id="3" value="" style="verticalLabelPosition=bottom;html=1;verticalAlign=top;align=center;strokeColor=none;fillColor=#00BEF2;shape=mxgraph.azure.laptop;pointerEvents=1;" vertex="1" parent="1">
                    <mxGeometry x="110" y="230" width="50" height="30" as="geometry"/>
                </mxCell>
                <mxCell id="8" style="edgeStyle=none;html=1;" edge="1" parent="1" source="4" target="7">
                    <mxGeometry relative="1" as="geometry"/>
                </mxCell>
                <mxCell id="4" value="" style="verticalLabelPosition=bottom;html=1;verticalAlign=top;align=center;strokeColor=none;fillColor=#00BEF2;shape=mxgraph.azure.github_code;pointerEvents=1;" vertex="1" parent="1">
                    <mxGeometry x="110" y="100" width="50" height="50" as="geometry"/>
                </mxCell>
                <mxCell id="6" value="commit" style="text;html=1;strokeColor=none;fillColor=none;align=center;verticalAlign=middle;whiteSpace=wrap;rounded=0;" vertex="1" parent="1">
                    <mxGeometry x="80" y="178" width="60" height="30" as="geometry"/>
                </mxCell>
                <mxCell id="12" style="edgeStyle=none;html=1;" edge="1" parent="1" source="7">
                    <mxGeometry relative="1" as="geometry">
                        <mxPoint x="550" y="80" as="targetPoint"/>
                        <Array as="points">
                            <mxPoint x="400" y="125"/>
                            <mxPoint x="400" y="80"/>
                            <mxPoint x="490" y="80"/>
                        </Array>
                    </mxGeometry>
                </mxCell>
                <mxCell id="19" style="edgeStyle=none;html=1;exitX=1;exitY=0.75;exitDx=0;exitDy=0;" edge="1" parent="1" source="7" target="13">
                    <mxGeometry relative="1" as="geometry">
                        <Array as="points">
                            <mxPoint x="400" y="152"/>
                            <mxPoint x="400" y="200"/>
                        </Array>
                    </mxGeometry>
                </mxCell>
                <mxCell id="7" value="" style="shape=image;verticalLabelPosition=bottom;labelBackgroundColor=#ffffff;verticalAlign=top;aspect=fixed;imageAspect=0;image=data:image/png,iVBORw0KGgoAAAANSUhEUgAAARQAAAFsCAYAAAANAUbVAAAAAXNSR0IArs4c6QAAIABJREFUeF7tnX3Mb1WV33/3cvWOzZgYtZpmHIZBcIyhkIIDFawBzNUEpzMGGUMzSptUO1MDTVEcII0ZjGnAijoZjZXKJK1gShxngtaaXG4LRosWKzZa03QYpJReMtGKMcHMePVyb/P9wXpYz3723mut/Xb2OWeff+7Lb5999tkvn7Pe9tr7NuNaXA+84mUv+6Xj+w+8Y/9mcxle7uS+zfmLe8lnXmjfyc03Tmw2Xzpw4vjt+K+Hjh59fKnvOof32jeHRo42yj2wJoiEemPARZ4ntUsMoNTu4Yr1AyKonqSRJUsi1m48eXJzE+6B5DKkFmvvpZcfQEnvu8nu5NLIgEh8GLjUMsBSf8oOoNTv4yJPmFqleemLXrx9j3Nefd72z5cc/PnmrAsPqd7tu187slPuB8ees/n2Nx/c+ff3n/ihqo7cQgSWRx579P25dY37wz0wgNL57JhSGgFEDl109hYcL3/hsW1PvfJVZ2X12M+e/H/b+x/5v9/f/vm9Hx3cADgcNDUhA7DsP3H88iGtZA1j8OYBlDr9ml3rVCAhiPzWb7yuCEAsHfG//ud3dyBz731f3pFkagAGNpZhX7GMjq7sAIqun5qVIpDs2/e0UbHV9YY3vnFz6SUXbw6d84LNc5//N1s9NvocSDOQZD7/xa/sSDAl4TKklfLDPIBSvk+TapxKIukRJKEOhAQDFYmkl1JwGdJK0pT13jSAUq4vk2oaIEnqtk1puAyopI2De9cASpl+TKoFMDmx/8CftXT9wkZy7Xvf05Vqk9R57CbABWrRkfu/s8mRWoYKlDsSm80ASn4fmmtItZMABnDbcpctxP97Dh8W20DG1mv/6W93YyMRG20sAJvLkW//OEslGu5lY6c7xQdQ8vrPdHcKSFyInHveubue+a0Hv7W54YYbg+3gXptcl6/pZScu/B//y18kg2VAJX3wBlDS+059Z4qdhMeAuBDhD7711o8EJRQYXN/5ltdkx46oXzShIKQKeJWsf2ofBXXoU3/69a0L2qoOwa4yAuG0Pf10uQEUW3+ZSltBQtII3LcxiEAqwRVSd3qwk3BAmDots3DI5U0Si0Y95E0YxlrbgAyg2PpLXdpicNWCBA8HTD76oQ97v7ZTqTcU/arunMYFCTJkYwn1X6hZAyr6ARtA0feVqqTFTmIBCR7+6Y99MOjJIKnkTa89U9XO1EK9w0P7Xh/9139i8goNqOh6dgBF109iKYt6YwGJRr3Bfpta3pulAMQ3gPAIWaSVARVxGQwbitxFcgmLekORqTEbCak2ZCcJGRRrSSVLhog7mgjth9FWa1sZUImvhyGhyLwIlrCqNwgo04CEdt/iwSGYvO03L91gA19JV/CaQMIHdUAlYxE4tw6gJPalViohQ+lV11wffRJXbWIgKe3BWStEfJIKom3v/MK9qhkxJBV/Nw2gqKbP7kKnn3raHyABtBQyr1FvXJBIMPn4zVcXkUoGSPYOPO1sHlBJWBTP3DKAYug7rYpjkUoQS8KvkIpTMkhtwCQ+6PAAWaAygt+e7c8BFCVQtCqOVirhdhJqQsxeUsKLM0CiG+wUSWVA5em+HUBRzDELTK677t2ircSVSugG19NAks71v/8uRSvDRQZI7N2XYqgdUBlAEWeaBiZkKJXC5X1SSUg6KeUSHjARhzhYwAKVkfpgSCjiTCsJk5BU4jPCloDJAIk4vKoCgMrVN35ctbFwQGVIKMFJpYGJ1l4SgwkawFWdARPVOm9ayBJRu3aoDBuKZ2qWggn23uB4iNjFDbG5MBlSST3OWPb+rDlGZQDFMwcRZxLLOq+RTKwwQTNuueXmTc7mvgGUekBBzcOdLPfvAIrTR7kwQaBazPjKH8elE4TSp3pzBkjkiV6ixDDSyr04gML6SFJ1JG9OKkwg8dz8z9+clOt1wESe5Dkl3IRNyAA3jLThHh1AYX0Tk04kmKAajZpDjyNDLOpNDacfMMlBRfze2GFnyP6mTXuwtjSSAyjPzKuYdDJgUm/h9laz9tTED/6rT6jC89fm9RlAeWZGx6QTqCSxCFioOpJrmBZOCbvJkEzqYEgLEzwdY3DjH96tyqMCqDz82KMX1Gl1X7UOoGw2G0gnT51y4KhvaGrBJNVuMmBSZwFZYEItsNhT1qL6DKBsNpuQdCKpOpQwWjPF3SMcUlzEtWHiLqqpMtdr+rN0GQ1Q3P7HPVp7ylpUn9UDJWY78UknpN6knPNCi6An6USzkEjEL72Ie6kv1AeUJZ/CADDm/KJTHBG8qEkhuQYpZQAloO5w6YRDBBPKemAUn4Sp0bClpRMtSHjbS7ehZ6CknuMTe6c12FJWD5SYuoMvEH2VciDiAuVLd37AFHNSeiFrYULP5eVLt2VqqPjUPEtErLX9pzx1/GUPHT36uPW+uZRfNVCkQLYag2iVUEouYAkkMRGfxHskxj79l19ao2smqdPtE607OLWxS1d7VgkUyxk6lokDWODC4sP1koM/9x4mZQmzLwWUGEzwDHyVNbYAfjrhEsDC+0VrYLXMCbfs0o2zqwNKSamEDuwCOM668NB27rhJlhA96+YnxX0atacFTFIXEUX4zh0qHCjv+cCnVMbVHKDg3iVLKasCSgmY8FP/fABxJ5vvLGJNuH1tmCCGwnLAlW8Rkbcqd4FNeT8BJRRTQlIntbGELW3JUspqgKI9+iI0uUnUhyQiHdbl1vH2K39nj2dIikMpAZSQmpMqlfj65k/+zU2ztqn4gOJKni9/4bGdV//ejw7u7CbPCR1YqnF2FUDJkUxyQBI7lzhmR5kLTLDK8B7IyD/Xi4BCkIX9651veY0KkpQd/8j93zGHEixV7Vk8UFJhYjnQnBYTAcTNh+L7kkFd+PD73rlnHZaACSr1SSfwYKRM/hgsIGkdOucFc+XJTrsBB0gfKe9C92p3IOOhS41JWTRQcmCiOYcYE8N38p9vdbmRlKFo2RJAyYUJ2Q0OXXS2FxTwBgGSlq/57ImjeAHLeT5LtaMsGihS9rWQoVFztg7u1e4wRlnfmTuup6cETHzSidZmAsjBY6WJNcHiwTV3L4+CE+Yi2vyzS1R7FgsUq3QibQQkaUSb3tGdha2AkpJhjHLkpoj75tW2khs0mfIHUGY0GSzSiQQTS2rHUBdJQKkhnUg5O8jgPGejas9TUoLKEtWeRUooFulEAxOLajMlUCxh5PTeQyqpiyQJKktzHy8SKFrpJAaTElIJn6oxCaWGdBJL/rOUKNe6KChXe2yz4dLUnsUBRSudSDApIZXEgMLdxjWAEtrkNmBSDhTammLHmQ6gaHtxonKxdI68SQjIuuqa6/e00pIf1vKKPrcx4lBKwYR7d2Jh5HCHDzXHMnJlyoaklKXZURYnoWjUnVCe2Fow8bmNKVK2BlDgJr7hhhv3rIS5R7WWWdrT1BKTUpZkR1kcUM449bQHTu7bnB+bNojudPfj1ISJL1K2RoQpGWV96s4SNvJNg4JyTw1JKUtSexYFFI39JJYnttzU2V1TS6BA4rnsbe/btbdk2E1qjaytXkgpv/1Pbtpz0wCKrR+bldbYT3zSieXEv5SXcYFSc4H7ROuh6qSMWvl7QmrPkvb1LEpCkewnPs9OTVWHpuSUQKkJr/JLbvk1+tSeJRlmVwUUV91pARMsERcoNe0Z7ldwSCd9QWoApa/xCLZGYz9xXcWtgOK6jGsvcpq0Qzrpb/KG7ChL8fQsRkLRAIXbT1rBxOcyruHh4UuHttEju9yIOekLKiE7ylIMs4sCSuh8Ykwp134yFVCG1NDXAi/RGmsqB9cLhzYMoJQYiYJ1SB4eLOQ77vrMzhNre3ZiBlnkQVn6BbVLk1dlCf2ADYDYqqFNHXnjH969Jz/OAEpnM0Hy8HCDbEvpxDXI1raf9DIsWDRI1rSG1Ai0o1i7rSFkmH34sUcv6GX8UtuxGJVnACV1CtS5D2I9ro/ffPXis7oBKNjqoPXeLdnTM4BSZz3t1Op6eOZ+7ITUXQj/54mdli6R4X2xGRMRsNocMwQg3pdLiUVZJVBuvfUj0roo9jsHylINsqGk2DgxkU5JLNahQkVWA2lqu/g7893dGinFBxS0Ywmu40UAReMyJhtKS/uJ6zLWTLbUCT7FfbHzkvkGxdpucnp3wASnIcJuVVPVct+b75/SfDRCruMBlClmsfNMOvh8377N3l1XrCwFtbUESssI2dZDEYMJ2kJqAP7eCqR8odZ4Zuyd+bnIkpq35FiUWUsoGsmEFloPQJEmWmsopD5PggnqtX61U9vC7+MLVSMpWJ8Ze2+eg0Z69gCKtecblLfAhL6SOG9nSgmllehfs/s1MKHnc7WnBUzdhVqyv6X3drPkxd53AKXmDE2o2wqTHoAifbUSumGSW6SFxRvFDxhr8f41N0Zq3purPdL7LjVadnYqTwpMBlDKsEezqPiT3GRPLaQUHoUqLWpLr2je3c2UF3vfARRL71cqi+C1/ZvNZVKKR9/jp/DycKNsa/dpjSHQLCr3uRbbQok2u0FjJdQe7Xu7ak8MaD6gLCEWZTYSSg5MepBQangdSixASx3ahcXrdBcZ+kG758XSNirrxniUkFK07w2JzAVaSErx7efBO8wdKrMASi5MBlBSlqb/Hu3i4ndbVIHcltZKgSm9N51eoAVaCChzh0r3QCkBEwwS7TaeysvTwn6Quxg190sLy1eH75ygmv1RI0m3771DR6C4z/e9awwoc4ZK10ApBZMegLIElYdgkQIV39EetaDi23xX61k+gLrP9+3xiR1PSnXOUf3pFihWb841L/jF7Th87Mc/8X5otRIKDKnnvPq8bfg2/sy5uFF2SUCxgIW+4qHYixoL3fcs7ca9nPHGvZQtD/uY+OXajjRAmaOk0iVQLDDBRHnrUz/dvPX5v7j57JM/iQIF+SpwwBdtDsSCx/X9J34YnUd4Bi4rYJYOFOviC22KqwEVn0qRaxCmjYf03t/70cHtX7/7tSPbP39w7Dl7EpLzPuLvqQXK3KDSHVAsMEFnQzIBTHBpgIJyH/3Qh0WIhBaLBS5LcxtbAeIr71voJTwx7rNKwYskDoIFPUf6CPnenUupFqDMCSpdAcUCEy6Z0OA9cfznmzf/5RPBeU8wSJkMbqWoS5JYXKDU3AFbYrG3qCOU9b20lEI7j918NFZ4hcBk7Sv3uVagzAUq3QDFAhNXMtECxToJNOUlsPAJvYTkSlhgJOIjq/7LX3hs202n//JLxe4K2RdwYw0bUwgGFtWnBFBSjbK+DkXu2QMnjt/+0NGjj4sdPkGBboAipXDkfcPVHP7/MZWnZt/GoMKBUvorXPOdfHWHjJ0oC2kNOWRxcdDg37A1AEJH7v9OUNWsARQ82xeRiv/XjkXImKzt+5BElAOqnhNadwGUEjDBAE8FFDw7BJUlGWatiwB9olUvtQtcu5CpXKjNFq9PinqC+g9ddHYw87+1L9337hUqkwOlFEwk+4k0ETkQ8KWFEQ6XmyQpVo8PKkuyo+QugljfldhzE6o/FERmsadooSKBJAY6sguGQh/c9+sxw9ukQLHYTUJqDjoZMPndn+1Tfw1pYCBmAx78/BgK2uJRkHTuigYuqNO9SO2xTGAJgFP8HjKo5rallrpD7YqpLVZ7Cqlu/J1J3cM8wqWxJ/ngjPlx23NPbv7zXx8Lhj/w5/YY+DYZUErBJEXVwSS69JKLt8d0WqI+eX6P0CKSpJRaon3uotber/1Sa+uzLGhtnb5ysXanjEluMuwYUNB+7QeyN6hMAhRtHlh0LCST1z/v4OZFB55WQdzLouqQOIrDpywg4c/07Utx2+RCZUl2FPLUxAys2oWPhdzydMGY6gN7R8tDySSgWKDSkz1lEqBo7SYkAoZgYpFOyAj3pteeqZ3vwXKSpBIDytzVHq5GfP6LX9l6bnBpja/UNyQhZg+GoYKY6tN6XDRAmSNUmgNFOoOY5ocGJih7xV8dFydzSZhQ+3yb3fjcdm0pS7Gj+NYvFiq5hvE7GbSprOtO1tgYDJwwFY2pPi2hogUK7CmfPeUXxDnei+rTFCgl7SaYRRp1RwsTGGGxMDDZNeqQm97QndUhoKBcis5uWjWjcLQHYlCZ0qZD6r3b+DkZaZsBxWo3of05sZmhiTvB4r3+998VrAY2ETocigpxq/0rX3VWVPXBmba+y1V7lhTgNndehcLy6b1aAN8HtRBQ0C4tVKa2pzQDitZuEnMPuxNZAgoW9Zfu/IBX4qB0fTHjIkEBKQt9YIlJKRwovgO/aqZBnPuCb9F+KQK2NlSsQJmLPaUJULSqjtZuQhNOsp8gWCpkhJVsIHxSu1GVXCUK1YN76HINli119RaLc67PgB0jtPPcEkmb8v4pQJmDPaU6UGrBRApmo2Apnz2EZ2LXTgbucqZ7ULfGjex7xhI2Cmr7rudykpEWOXQQr1T6SgGKVfWZYhNhdaDUUHXQsZJBNiSduGoKQGFxefomWGgDWmwSDqCUXqLp9cXyu9aSJlOBYoXKI489+v70nrHfWRUoWunEYjehV5SSKSH3iM/uQdIJibTYfo94CjdlX6grfRMsJXq05t4V+zRY9x2SkbYGVHwQixll3RHSRNJO4UquBhQtTKx2E5JOYlbvmLoDmwfiJLhR1AoE12Bn3TTXyjW5bkzY3l4y0pYeMx9Q7v5bL1I3WmtPae31qQaUmqqOJPbFXMWQUCCV8OCqUP5R2nUsZf2SJiPNErLDtAw3V8/QUXATM9Kie0pCxacmW4AirQE+nC2hUgUoWunEqurAbkJXTEKJeXfcs1Q0B0NJxzK4IjP38KC9PK5lyijRwQy5BzDWsVCCEvuPQomqsNPYevWm+lQBikY6SVV1coGC+93UBNx1GNpK70oxFONC7aHwcz4hLOkRrRNplK/XA5IKnAuVkkBBL2ig0kpKKQ4UDUzQCTnSSUzck0LtXQlFe7i2OwlqGOrqLZFRs7UHJKjkqD+lgaKNom2RkKkoUFqoOrkSSgwoEiS08LFO3lG+vx6QPD9osTRfQm/lM+JbPDy+ejVSCrw+Dz/26AU1e7soUDTSiVXV4XYT3hGlbCgcEtJXx/2y1A7Prjnwo265B2pBJScGJdRqrZRSW/UpBpQa0kkIJjGVB7/FvDwxCUWTipBPhgEUeVHOvYTGg2eNKaoBFGlN0DjUjk0pBhStdPK5v3FAPcdiQIkZo0JAcWGCOqyA4BNsAEU9lMUKulspfGNa7GHPVCTZU6zzIDeoLfZ+GtWnppRSBCha6QR+9lj2Nd5REkxiQAkFtpUACoeQ9ctUeqKvsT7f3qzaUJGkFOs8KBGDkqP61JRSigBFI51YvDoamMREvFDaAt/E4wYy7ZeG8qqOALW2SIslvqoNlZiUYtmXVdrDk2qgrSWlZANFm9JRK51oYSLpjL7gNt+kGypMWyjkPK1HoFg9PS2AojHQ1pJSsoEylXQiAcVnRxlAyVnO09/bI1A0hnzeczVcxr6R0UClhpSSBRSNdGJxE1ukE+rEN//lE96Z7rOjhMRiMpJpVZ7pl9b6WiDl+a2t8oRSHFjtJ7U8PO6M0GwerCGlZAGlpHSSApOYYZZEUZ7CIDTp6KsxgNIvqEJAqQ0S9EjIKGtVd1BXTQ+PDyrSsaalpZRkoPQgnVjVntDkownT+rCnfpdvXy3D+IRy+rZoacgga/0AhcCUGyUb8/hIR3CUllKSgdKDdCIBxZVSYl8zSCk4t7bl6XEtFsPcn0EpBXiy8RZSCfVbLKVBCaCQSaDWOLW2pSQBRRN3orWdpKo6fABiwTzcOCtNRDqXp9bgjnrtPYCYDVxIvYmE49IY2p+w9w5+3Cp+9aUITVF3tId7lXgHqqO1LSUJKL1IJ7zTQroil1JaTMaSk2HtdbkufZyvVHMMOUhieYZTM+K3MshOaUsxA6U36URSe/A7SSk1J+PaF3+N908JOkxphwUksLOlBjS2NMjyfmgppZiB0pt0Qh0XU3uGlJKyzKa/h3/RU1QM6Q20IEE90k50zbOuvvHje9SnWgbZFCmlRL4UM1DOOPW0B07u25wf6sCWthOXwjEXmTUASZog4/f6PVAr/wwkn3vv+/LGPdHR90ap6o1b1xT2E8v6QNkS+VJMQNG4irV7dkoYY91Bk3ZaWq3y9ZfMeEKsB1yg5HwUSBrBiQdu0vEQSHLUG7dOn/2ktofHuj5KuJBNQNGoO5o9OzVgorGllPraDAy06QHfV12bzxUAwYUzlwARjTSC8rVOJpjKfmKVUnID3dRA0RhjNdJJLZhobCk0YXAIWOns8zSBS9fbZun2+ZRYhCqkB1xnXXhop/GII6ILmetxWU6FzJVIKFG5e0xL64C22GhKUnyulKIGikY66QEomkCekgY+CoijCdwyXqJPDJRtVeyYUHoSxhPgoD8tLSghkXDjri/augd1h/pEsz5ypBQ1UDTGWCkbW23pRCulkKSScxB2yENgCaSzTPy1lpUO30rpF0AEZyVdesnFew59s9RHEgkdwxL6UPmg2Np+wt8rtKGWylQHSiljbCugaPzuOfpyLHnxAIplSerKSikYNbUQRHAaZGocCX8OeYq4gddn9O9J3dFKKTlqj0pC0ag7UxpjfRNKI9pxkRnSiqv7+uqVvpg8sdMIpNMsdbmMJvs8H0v6Oz+xEf9Xwr7lAwl9nHy2udC5163iT1LXRqqUIgJlLsbY1I7j95E+DUMfnfpHv3/vRwe3sQsxl6MlZYK8jOZdovS+KDJ6YxxwcQMsN8zWOq1Ril0J5UXpyX7CZ5TGOJtyho8KKE+dcuBobHr3YIwNtU/quNB9gAO/JG8BuaSxgY1fa5VSsJBwlVAvpkSrBBK0LRQfE/NSpZxjXLIfJAk+Ve0RgSKpO5rI2Fa2k9JQ0Q5gCCa4f61AIVHftV2UUj20Y5NSzhKSH/MY9qjuUH9IQEG5FLUnCpQ5qzvuRNJ0YMrki8FkSUBBxjTAkTKnaUDpivsk9fEYEo3dKmVcLPfkBMHFPIUhl/eU9hOr2rP/xPHLHzp69HFtf4pAyVV3ppZOeEfUgErslMIlAEXK5Rp7R8mYytVKMqCiPp8Nq6RkQ+5e2GEoihb1S2qtu6hiWzl6VncsUop1w2AUKEtQd3ySipQWT0vj0IFiS7KhSECRJJXQwtL0sWvHwj0Aj++COxhwoD95GcSbHDrnBTv/5TtoS9MeXkbaFxZydfcineBdNB9Yq9oTBEoJdacn6aS0CiSpOvQ8acFZJ3Lr8iWOrpAkldrvxBd/DuConRJMUC4ErZ6AgnZKTgvrDuTVAoUIjT+lzOC+Ce9zEYcWxpyhUirbvMXQWRow3AuTCxQNTEKxSlNGx4b6VJJSrN6eIFCWqO7EOhW/WVQhLVDmDBP0ifYsYe3myFBgWGmI8PowVkhyjSsVKBSjpEliHjLGzhEo6DOL2pMFlNjenZ7VndjkBbHpkgDjO+7UV/ecoSIBxU3orD2KpCVYcoFiydYWA1Zv6g7NVUntyQbK0u0n2q+hJA6uASg+KYUD0o21sOzkJqnmU3/6dXW+Eu3YuRIKhcVbJJSUncghY2yP0gn1kTTPLWqPV0LRbAaM7d2Zq3RiNdxKLuMlGmZdactncNXYGdy+JleuNjWjBSwu5CQvTwpIJHWqV+mEbImSHVHrPvYCJdd+shSgoLNjW70x8f7T5z8pzu05qzyuhCIdOI/yFinF13m+QDOUs8aJUN1ue1wbB4/mpRiYlI2EsV3RPQNFmucWO4oXKFLuE2nvzpKAos2mL1GlFFRCWcGk5+f8zu0o0nGutOgtdgepbXxjIN8UyIPSYnUgduWdb3nNzm5jSorFA+hSAMKfGVOlelZ3SttR9gAl136yJJigsyWD1RR2FHxhEcCl8ThIi1X7uybk3l1UJaEitZOgEyqXCwzp+XOWTjRqj9aO4gWKFG6/BvuJ1mA1hR0FkxcpJ3MyzkkLxPc77eeJ3TslVFLeqcQ9kqEX66X3q5Rhdg9Qhv1k99BLHa0Jv0eNpVQe1MV38tZIuJ07+X2bAntsZ+570v1zl05Kqj1moMTsJ0tTd6ijJcMsFssrX3WWOD9LQYV/EVM8KmJDCxTwGT5zs8oXaFbxKiTppHdjLO8QSb3XxKPsAUqOQXapQJE6egq1hy/YHqES2227JLDEsvLPCSZaO4qUxW0XUDQG2TXZT7R2FKg9H37fO8WvXykJhas9+Huum1ZseGKBWP5dN91mbaNp4itEbwslUKIxmTorm/WdJfVeY5jdA5SYQTaWnW2p0klJtackUFwJoFeoaDLW++JA0O89Q2ZJqo72w4lyUoDbLqDkGGSXDhSJ3lO4j93F2qvqg9B6zXnCNLEpDwrlPoGLHJcvGbX0Faak1rwcYllyAthQVwyUc4g7CfWbpN5LdhQTUNZokNXSewpvj+8r2StUrr7x48mRrhI0Un7POXhdOkplbraTkobZHaBo7CdrBgo6vUTUbEm1x7Wl9GxPkVSEFCik3pOjHkrJouYME41hVi2h5ABl6eqOVkqZwtuDtvlctD3GfUiLMRUQ1vtypDjJJrR0oEiG2V0SSmqE7FqAIhGc8m7k5mG1LhDf1z9HpLc+31J+ysxtliRJvndasqqj/WgWA8qaPTx8cknnJmuMs6XVHp/qg//L+RJbIJFSVnOAVkq9vnu4i5onq7bUr5Gu5i6dUH9Ih6nHPD07EorGwxPK0LYmCUWSUqaISaGJ4At512ZQsyyukmVJYqGdw6kpCqhN3EME71CuNyfUt24fzNmz476L5OkpApSQQXZtMKHOD3X6lLlmfV9RtKf1JsJU4FBqBkpRAMjQ9e1vPrg9QoP+pP8nlzL+XTIdAX8HSdVB2aVIJ3gXCSgxw6xaQhlA2b1MYnEpUxln0UKfPSXHq5EKh9L34b0Q6EZ/lq4/VJ/WO7UkoEgxVyqgpO7hWauEElN9ppRSyJ7y0Q99eFfcxxKg0goi/DmSV4erWnMLtQ/1ZzZQhsua6G9HAAAgAElEQVQ4bar2KqWEoNIy4VFaj/Z1V2yvjq+lS5FSJKDEDv/aqjwaoPg2Ba5ZOtHYUnAWTGsXsvR1HVDRQUur6ri1LQEqGqCEDlFXASXkMh5AiRuwprSl0ET3iewDKnGopMKEap07VIoAJWWX8QCKHI4/tZSCST6gopNKyKht3cy4NPVHirWKBbftSCgDKPpJx0tKLrYepJRQUNYw1O4ec03wmmWWzFlSSQ1uUwPFF9S2dglFEg0x+ab2+NACGFCpq+aEap8rVKQPZSi4bQuUlCjZAZNjG+m0NZpkPUgpMXF+TsFvFglBW5ZOEdBE6aKvNOX4s+cIlapA8QW1rRUokn7pm8S9SCmSjaDnvT9aOFjKUdj/nV+4V3UbxvH5f++KzQ//z59vDj72P0xgmVtovgSUUHCbSkIZQHl6vmlUnNDMnCIBU6gtMVvBWjxAFqmEVNdjp/7tzYt/5dd2uvXJr37ODJW3PvXTzeufd1AFsCkLDaBU7P0ckPBm9aL6SJLKklWgFMMrSSa+KbZUqAygVABKinoTa0ZPqo8EFfwOAP7Wb7yu62TR2mFPzcPygr9zyS6ppARUUEfvdhXpI1pU5Vm6/aQ0SPgk7BEqn//iVzYhOwLlEpkrWFJBgjHTwITG1iqp9A6VARTtpypSDp2IS+u9SX0k2Smk0wZrJGIKtVmyKaDNl15y8SY1QVFqX6XelwMSK0yojTDW/vi/32dqcq+SygCKaRj3Fi4hlVhcinOECnqtd7DkgiQVJkuTVAZQEoGSCxJABNZ/XPAAWL5SZPx802vPjLa+paSiNVoSWF7+wmOT21goMdO99315m4DJGifCOx9qDlzCdPGx1U4xyxygOntzKw+gaEf7mXKlQMLdiCmiL7dRxFSgllDBe0gqEF8IU51VXEIa0U4biz0FdaZCpRe38gCKdmZkxpOQROIDCW+CdUKRtIIvfggstaCChRm6sFFO89VH+5GiEXaWWlILtRNG5CP3f2fb5BxpxDBltkVj7mNfXSmGWjyjB6g0A8qcPTw5UokWJDlQoUlLX3wfWEpBhb7ueCYliHYXBR0Fiv/XQIVLLbgX+V7hHcJlPaeY4IGjRJFjtlQSaytE3PItJBU8c2pj7QBKZKa0BkkuVAgs7qIkwORAhWwkFkDkLkKSXlAPTyqNfyOxNCWlJrgRwFpLINr3XANUBlA8syHHDZwikYQmpFX9cetBW3ARYHh2d8vXPzdxkHbBLb1cytxInQNTSSoDKM4sljokNOlTJotmAaXo01K9LmioPICDC7YMfvV2YLn0fj3/DikFl2RLKyGtTgEVaf0Ui5Tt3YaSo95YRVnrhLdAxRLT4msHwYb/1tKAae2bEuX5O1velQyhbhs+e8ovBI2+briAtv0pO5VRd2uoNNvL0zNQJKqGBj3la6OdQO4XSrPtnTw+uBfHYeCyLJCUts3tnpAaSB4gTX9hkeLC7t8XHXj2UDHqC8z12MKieUPlLdKK5eOC+lt7f1YNlFSppJZ6E1ucGl0aQWOfuO2T22oe+YuHNt968Fvbv1PgVmnA8C80vsql6y8BKwIIPGC4fN4jbewMgeStz38aKLErBhUXKKinJlRaSilVgYLBpBSQPUkoqSDBwNdWb0KTFEDBFdvzgf6+467PbE4/8xV7qgFg6CLQ0L/JvUr/hicnBgcCibuwaIzJqB0T/aUFSb9TAB/9m+JIePtcNY3gIR0xqo3uDb2v9A6fffIn3v1dXO3hdVigovnA8LpbQUUCSjQFJM7lkZJUAyi9wSRlE98UUgkmBIGEJoek+kBKue66d3uhIi0A+p2kG/cUQfyOfsBJdz5R360f414CLqTKYYMhD6ZDrIlrQNbGrWg9V7QQNe/re/9Q0maflEL3a8FigcpigEKTb2qozE0qcUHiTtaYpEL7Za648kotQ7wSzduv/J09NpjQWdXSg3LhQpJKiXQIGhXHAs7Yu1/xV8e9dqwYUCwqkBYq9D7SOOX+Xl1C6eHc1lSYYBCQC7TVJUHEbUdMWqGv+rnnnbu9zacGxd7rc3fdtTXsukZK30mQ1v4huKSoRDlg0eaCzZFK0Bd4P0g09J4+iVgCSmmotACK5NxQnctzYv+BPzu5b3O+b1K1eAlpMkvEDN3f0lZiBUmKtEJgoXslwAAoN9xw465HpUonsTGCnQGXVQ3lthWN1KKxl1ilEo3UHVpkITuKr680KpDk/WmxFqsDBZ2DL9oU1xykklyQ8H7V2FawAQ+XBBfYUG699SObew4frg4UekDsay7NH26UJYOsew+MuTGXsFYq0UDEfbbvo2YBikZakVSfxQCllTGIBjEVJLi/lVRSEiQWNQhlMbFod68LFl5XSfuJBAT+ew5YLM+hslqQcPBZn1MCKBqoxKSUXoDy8GOPXuDrv+0xGrjOOPW0B0IqD35vBZQckLTy4NQEiTtImpSCHC5ccoFb2VV38LtkP+G2A7Ih8D8tC1EKDrPUFSprVeFSpBM826cKWCUU/g4hFSgGlBbrUFJ5QmH3eLcdoEinB9Z+kRyQtJBKWkLEKq3w8qQ2UOoBV90J2RdSFxk9W3LHwsaSYrzVAKeGzcT33NBC0xhmQ+/hg8oAimbUA2VyQVJbKpkSJDlgCQ1JLaDw54XgkqIGUTAa6o8BySKlpMKzBlB8KtDUQJEcIEUklBq6WwmY1HIH9wSSkmDxASV1gUnfEQkssTB/1ybCo3d9nqQ5A4X6kaSVh+9+etuFe9VYg77nFAGKJlq2ZCxKLkxqGV57BkkJsGBS0jYKqq8WUFC/pAr5pJYQHGJQ4ZIM7yc69pO3I/V9a0ko7riG7GatgBKKCqZ2hsLud9lQJKCgcEnXsUTBmMjunjErfSml3+cEkdC7aIy3uLc3oKBNWOB8EmvO0tbOHw4a2rOUChS01ffcHBuKbzxDY1nbjom2SAZZlFEDJRbchopKvZCm0b6OLi2VLAEk2q8blesJKKFIWw1QYoFmSPKMix9KXkJCaQGUWBxSyQ966MMkrc1YlOweCaVnoJSEyRJBogVLS6CEcoxIGw1TgaL19vQsoYSA0krdkYACg+yBE8dvf+jo0cd9UNpxG+PHVq5jqdG8oSW9OGsAiQSW1kbZlM2ELlB8APDNIY1hNgcmPgklJw6lN3UnJIHxdsY8PLskFA1QSlFSCxQ8L9eLs0aI8AngfvGmBArapUngxKWoEACsQMkFCfWpa0MZQNmNRZOE0hIouSrO2kHCh9k18rmRsqUWm++Lm6L2aOaZzzjKJZRa7zQFUDT9EbKJWP8/x8OzR0KBp6eFHUWSUHIkkwGSvVNoSqBQazQxKXzTX8wBEJo/BJRaMKmt8oTsJ6WcIRJcpHUpGWS7BQoadsabf096/12/D5CEu6sHoKB1sZgUN81iaBHF4pdaAMX9gpd0GU/pLsb4aIAS2hRIs2+XyrNdyI02CUqiVYrKM6Dih4r75dMYPU00L1DYncyhQLVYvpXaKo9vwdUGSkt1R4rtkQyyeySUloZZqfFDSimwSp+pYo5ASXl7Hq5fQ+2ZAiit1B2fOueOQRJQWkXMSuIVXsYqpQwJRaf29CihaD4wGsi4kg0PbtPcHyvjk6IQtV3i6t1+gneMRcgGVZ5eDLNooNU4O4CiA0rL4DbtYisFFN/zfOpTCmhcNb2ky9gHlJbqjvSB1xhkvSpPK6BoRKwhpWiXo1zOnbDcdVxDPZBb9HQJyyZRLDDKUkf10+FnmpMCeZtQF10Uqi+12bXf1LaftFR3JKBo1B0vUPCfUsRsKXJKLzGkFGmK63/v0Y6ihQkHiS/dJTLTASxuMil979hLlpRO8HSfh6clUCQJsSpQ0AElXlYDFDzL4kIeao9O7ZnajhLb3Hfte9+zfQmchIhTA3HF8ubSGwMsviND7LiQ7ygJlN7VHfSGxn4SlFDmrPYMoOiA4obgt1R7JJho4BF6S5JWcAyrVQ2SMfJsiTUBRWs/CQJlKxU0ikfRSCkW4+wASnhZxNSeVkAJidYYY0gmOTDhb87Bgv8PwYXUqUee96vb20//6/+9+cYPfraRjjMhdbyEl2cp6k4UKD3ZUdBQiwt5QEUnpdQOBOOtkOwlKUDBIWf88HhJauE2FvpIveZ1fzfYWV//yn/dnkkdg0sJw+yUQJHGBZ2jtZ9EgaKJRylhR0EjJIPQAIpFGI+XDYXh15RQNJMWraYD4qW39Z2WKIHl0x/74ObOL9y7UzWe9dI3/gPpUTu//4c7/p3XcEpzU12RU7B3+4lF3RGB0mKjIBqhUXu2aphyf8+QUOxqTy2gaMeWWvy237x0c9U11wdfQDp6NQQW9wRFK1DQoBpQmVI60aw9AEXav8MHa89eHv7jXNWeARQ9UEqFAPieqJE83ftiqo8LE5zbDHcxLhzPCvsLlXHB4gIFH6eYuhPqQahBvqz0qUbaqYEijZFF3YlKKPhRAgrKtFR7hnE2VbDefZ87iUvv0o2pOGQERYtCnhiUueOuz+x5WQ4UAMM9ZhXSzU1/9Me77iOwuEB5+0f+bXJnhiQVqz2ld3UHHaR1F1NnRiWUlu5jrWg81J7kdbBzow8oKaHobksoV2xoR7BrCP3+4X8fDEbz2VM4UCCduMesEohcScZ3aHwOUPDe9/zL63Z5jlIklKmlE2nNWe0nooSikVJKisxSSgO0R+vtGWpPO7VHAxKEzPuMoO7CpFb7VB8JKAQhn53lXb/7e7vglQsUV0qxSid4z6mBUlrdKQKUkmqPREw8S6v2DKDEJZkSUooEEj5eMXtFCCqulOKqPK4ac8stN2+uuPJK74tzoGAOveFf3Jos6rl2lBSYLFHdUQFlrmrPAEodoBBENAefaz0pMdUHkODBbi5UKIANRtkQTFyVJxcoHIApqg5GxgeUUvZIDSkl6SRF3VEBpbXaI73oUHs000UuE8qG77vTAhGSSkIqTqhlMdWHG2glt7Gv/pJAKSGdTK3uaOKCrN4dlVGWCrX09gy1R4ZBqRKu2uPLG6KRRHh7cr7+IahwKSUVKNwjVKqNJaWTkrZIaX5o1pjVu2MCikbtKdUhmpdF4zXenqH2xKeWZr+KNDn571oVJ1RnSPVx3chWqLgu5lSglDDELlndUas8GrUHZUrpgKXUnjkChaSGFEOfZfFTWe0h61LduTCh+kNSCo+gzQUK+vbvv/0fSq+063eoOk9+9XM7ruJU6aQHdSeW6BvtS1V3TEBpubdHI6Vo3MdzAwpf3DkT1rJSSkgppWCCdteQUlwJJaW9NaUTvHeLg9DxHGltpRpjTSoPCvem9izRfewCBcewtoBijpSSsjgl4JWWUgCUNxx6485jrW0uZYgNSSelzAVSv0owyZVOTBLKUHuk4cr73ed1oXOdW0AlRVJJtUVIPaWRUmI7jn2RsjlAKeEmjqmYpUwFUr92B5TepJQlqT1TA4UmI7UDsMBFCYR87csJDpMmfwgqPo8PuYWxNwgXXNbXXffunY2CCNPnqSEtEkopVQftmvqoDMk2mavumCWU3qQUjdrT4usuLQ7N7zGg4P6p38NViyyLUvP+bhnXCEq/8+hZkkR8+3p41Kz7u6Xtd7z7H+00Ldeu5VMtl6TuJAFFY5wt1UkaEU1yH0+9ELWLyRcTQioP1THVu7SGCb2vNi7F3aeD+wGNT9z2yW1VHCgWNa2kdIJ2TLl3p4V0kgSUllKKBihLUXskCWUqqITalZJLRAtXKqeVUm76Z/94VzY23B+SULRAKWmIjak7Lbw7mnWU4yrm4xpNXxCaAC2lFImsSwGK+/UKvVdLKSW0ga2m7cSdcz4pxbcTmW8UdHcdp0goJQ2xIemklCQvgVpaQyVsJ9SGZKBI6SHxgBLWa4muS7GjuIu3B6D4RHSL/UGa6JrftVKKm6GNe3q4BKORUEpLJ1OqO9L6QdtKSSfJKo9W7SlBYM1GpiXYUbRAQd+3kFJ6kE5ithRXSolFz3IbiwaIpaWTkHenhbojSSfo49R9O74PQpKEQhVJZ/eUklKkTpHUnhYLUPO1jZXRAqXVu4Q8Ei3VHeqvkAtZG45vAQo3xOZ6daj9U3l3WksnWRJKaykltv9gACUXZ7vvjwW5kYrZwijLWxWypWhSG3CgxJJT11B1pow9kT7EpaWTbKBoAt1aSClLsaPwL1kMkrWlFE3UrMYWURJzlkA3/lzLPp7Sqk7IdoL/r63uaKWTAyeO3/7Q0aOPlxqrLJWnFylliUAJ2YVqwwRjqgEKTUCNTaLUZPVJKbE0kXguBwrmSSjxU+mYk6nVnSmkk2wJpaUtRSLuEtQeLqFMCZTYl9UHh9hCLQUT1JMipfCw+5BU5XqSSqWOmErdkdYK+rKkZ4ePcbaEgso0cSklxLxYVvy1AAX92JuUQhOqBVisUoomBqWGITYE5RKezxikNTCpYTuhNhUBilb1yY1LiYlxktrTYhHmfo1JQom9S8v3sKg+/N1rgsUnpcRcyBwoPvWshiE2pjbmrgFpjmlUnVrSSTGVxyKl5HRojL4DKNJUS/89NV9KDbBoXMjbD9yZr9i+sOQyrmGIjamMOfNfGkGNdFIyKtbXnmISilZKyRH5pA6be4CbRkJppfK4kyVVWkE9BJZHnverSecJu23RhOMTUC4679d30ja6LuNahtgW6g6dREB9o00mXlM6KSqhkJRSOyQ/JtLN3Y7Cc5G4O41p4rRUeXxfoB7AopVS0H7Kdu8aZGupOrXUHX6UCZ7x/Sd+KAks3t9LRsVWl1C0UgrKpYp+Ayh/njSRSt+UCxa0x3p2D38HTaAbDgGjxEocKCUTTvv6NaQiWue89TwkzRhD5Tmx2XypdPwJPbuoymORUlJVnyXbUTQSylQqT2iy5oCFq0O+c49jC0TjQv70xz64k9aAG2RdGJVyE8ekE+181xzvqgGHVKaWLaU4UAgqT51y4Kj0UlZio761A2Vqlac2WCx2Fp5NjdqFhUvh+G5KA0DLtZuU2q9Dz0+RTmpIItLaw+81oFIFKDVVnxzDbK+LkQZfI6H0/g54l1SvEIeCRh2SsuO79hPXboLntZBOQip+K2kkBpfSUKkGFO0+H60oyDtlqXYUDVB6U3lqSSxcHQpJLbHs+Ne+9z2bG264cds8sp/UVHViIHXnuCYlh0bC4GXwDH5ZjLbw/JSyqVQDSk0pZc1AmYOEwid2ro3FlVpcuMQOWadFBfsJMuLzRVZa1Ym9J6n2tUACeJ573rm7gAKD9L33fXnPe4dAVcqdXBUotaASU3vm7DrWSChzA0pNuFDd9xw+HP2gAx7uF7ukqiOpeQCKNk5EK5ngnQ5ddPbmqmuu3wni892LSGGAReqjUqpPdaDUUH2WapjVAGUuKk9sYZSSWkidsYj3dA+dN6RdwLFyuTYjSxu0IOF10rlFElRKSCnVgVJDSpkTULB4tJNXEyk7ZwnFXTglwWJZlKWkk1btp0jjSy+5eKvaWA+Lp77xHTfC+w1SysOPPXqBpS/dsk2AUgMqsZ3HsRD81guSIKGZxGsDSg11SFoMvnEg6OPP2GWVhKS2SL/D9vOSgz/fnHXhoc0VV14pFVf9LkElN5K2GVC0qg96RROfkmqYnQooGlFbkw9lCSpPaObX/uKTIbb2c1QrO1CIVBpAJEcaCbXBzWDnlstVe5oBBQ3X5k3RuJLnYpj16dehryT/Ak6dYEm7KGJf9dZfdG2beytXGyLu+/qObqUyucbZpkCxqD4SVOYCFLxzKOs5t630kPXehQOA4POQ9LYg59ieUnaRlHevKaU0BwqklOP7D7xj377NTVJnxFSfuRlmQ19rEsO1JwdaVR7XPjCkBmnW1f09xUtTo0UxW0qOcbY5UEj10aQ5iNlT5gQUvIdVbw8ljOI2IJ9EUWPyjTrze4BnlUv10uS34tkaeK5dt94ctWcSoFjsKTGozMXTkwIU3MNtLQSPIWGUXFZt6oK3Bi7fEp4aOnIVkbD8shpwpdiUVOPsZECx2FNCUIl5enpyHacCpc10H0+p2QN0umGqVMIBgohXXNhGgAsbKHNiU/iZzz4pJSUmZVKgWKACkfGtT/108/rnHdx597m4jtHgltGUNReIuwkNkzr3ogVC9fQmhZEBlb8n4kN+cOw5Owvc12bpzKBYvwEktB/HjXAtJfHE1B60LSUmZXKgWOJTXKj0DJQ5qCgxOFBAFU16d/OZbzFov8JYLChLX19fXVyk/+7XjmwXLwdPCnTIY2XdmXvLLTdHY0JCBs4UoJAq4m5mRB+RHaaE6oT6anh7JgcKXswKlduee3I7B1NdxzWD26zG19yve+x+vnBIkoiBQguEmm2W6qYvN8px0PgA4+4ofvGv/Jq3esyHmAQJoMQWcWhhckPsVhp/JhN/6B1DEkNNz5Dk7dl/4vjllqNKuwBKKlR68/RMpdYQOAga0KtdyUKazNJC7uV3n1TDM7NRO6Vd5/x9JKBA0vjEbZ+MdkFoYZJ0EwNKzEBKUk6t8YsFuaWoPd0AZdvhp572B/s3m8tO7tucL01gUn8+9uOfeIuG3K5UuIaUUhMorrTBJQ1SR2pNOmksWv7uAwrUI0qmlAIU3PPw3WFgaIASklK42uMbnxBMStlJpLEprfZ0BRSCiiboTeqoVkAhMZoAxWNDtLuMQ/YWHpKN97W6BqU+muPvtYDy5Fc/FzyaAuNw/4P/Tewun5QSs6P4YEIgaTXWkvvYGuTWHVBKQqWV6zikm4sz0CkAKHEbjObLaH3G3MuHgELHZaRKKBJQkPhakgB96gNgREmzXbWHkh/h/0lNLWVwtYxzSTtKl0ApBZVWQKHBKwEWPrEHUPYui5BniBJSpwIlZkchKEhA8akPVsOsBQSlykp2FEuQW7dAKQGVmGGuhg0Fbc6FCgeKVtQuNbHmUM9UQEHeVkl6CKkPGsOsr++5Rys0NiXsZ1I8ymKAkguVKYCSCxUXKBpRew4gKNXGEFBcT4/Fy4O2SZ4eyXVM7+eLPqVoWVfliUGEEkyjTGxjKdUBDx8Z6q2QkQyzlr09XUso6CzL7mR3gKYCitsOi9TCJ7ZW1C61WOdQz1RAARRu+qM/FrvIpz5Inh6qVFrY/OFukJ4bZ2Qx6kqGWTxXGzXbPVByoNILUGKz0IWNCxSNqC3O8gUVqAEUUn9jbn+tPcsHBW3ELDfS8iFzgxHpNx69LNl3YlMAbebHtvrKatWeWQCFXhBxKhaX8hyA4hs8PrG1ovaCmBF9lZJAce1osShnS4DZRef9+p4zgEKenh7GjWw1rqeMt22RQNnqoAaoxGJRahllS0yQAZRwL4aA4n5hNflk3KfEgGJRP103bO+eHg1QtHaUWUkoVkllCUDR6u4lQDaHOkJAcaNl3X08mneT9mHdc+SwGIuC57h2lJ6BwvvTt4WB+m3RQNFKKksAilZ31yyYJZSpCRT0T84mQepfn2E21XVce8wGUFgPa/b+tA5uKzEB+KS26O4lnt17HXMAis8wa3EdtxwD3p++PVG8LRpPzyxVHv6Skk1lLsdR8HfiQLHo7i0n4lTPigGFGxVTVB5JQtFKi5KnR+uRCb3rVkIXUiFox8cFSsgwu3iVhzpMOutnjhIK1+UHUHYvDS1QcJfmtEZ34ZVyHbv2CK3rmAykbrpHt52+/DaW2BPU5/YlJJQBlJe97JeeOuXA0RCRQ67jnr08rnFQawzUfpXmXG5KoFjg7np6NECRQuBj48Zz4tBGQwkwvr5090StxijLJZTYkRxzjEVxgTJiUZ5dSnMFSmzXMb2db+8OstLRRTlstR8EKYH1AIqnJ6X0kUuQUAZQ+gAKWqEdC3dPT2+u4xCYYxKKJgv+7I2yqUDB5OhZ7XE9PVIKQu1Xa+7laksoUiyKFii9x6JYgbLYSFnfgjjj1NMeCKWNnKOE4nobtN6FucNC0/6Y58OXE0VTJy8jAUUbaNh7LIqvH2NG2QGUZ2bJEoAy8qLIKg9KtACKFu4SUHygo6NFSrmEQzC1SHlUxwDKwoAy8qI8PaBTSyjaQMMUoFilKU15F06x/osFtmmC2tCe2dtQ8BIxlSdlk5hmoGqXGcFt/h6eGiiS65ja51ucPFq29vxJqT+0l0cb1LYYoMSiZeeq8gzX8TRAce1Xbit8QAnZI9yjPdxYlJRFX/OekIdHq+6sAihzlVAGUOxA8aWBTFmA0vlK5Omxqg89AyWm7gygsFm0FKBovQspC2hO98QWcUugSGc9+xZoz0Apoe4MCaXzlTRiUfYOUA9A0YDBBxQ3WraX6VdKOhlA6WVEA+0Yhtk8oNTYcYwWtQYKFrzmkqSmUB0h2wnKa707VPcivDwxo+xcVR7XOCh5FzQTbgll5i6h0HEXfCx8e3S+/c0H9wwXjtOgbPf0I20KpH/7jtOIjXuJLG28/gGUjleZaxzUhn13/ErZTYsBxZdXVnu+NG+YZJSVVBdIFNjUd+cX7s1+X2sFBJhDF529ueqa66O3o7+O3P+d4Lk/FmPsqiWUnvfw8BkwPD02lWdKoJBaQgd0hQ7nsgIiVJ6nK0AZftSGRvWRYGKJPVmVhIKXdWNR5gqU4emJR8qWSFSN+SLt56GdwygLSQQqC1SUmhDBMympEs93YgUU+kgDvRTpBG1ZvMrDdU2IvzhYa65A0e4jsU6yOZW3xH6kGmUloLTqL4JIDkCorSRBxc7eobKAyYETx29/6OjRx63vuhqguGCxdtRU5UfC6t09vzag4ORIjQrjzk/uGdJIJDs2kJObb+w/cfzyFJgsRkKR8sr6YJD69WoNluE6tgHF/QKn5JXNlVBgf0CrT2w2X+Ktx1ffN3+O7z/wjtCJmDFbCalc+JN7iriHyKKGod1o8yOPPfr+1Hm+CAklBShzkVgGUNoDBU+UPD3ugqPFiP8ncFi+8tLpDakLXHtfCZgsSkKJ5ZXVdGqvEstwHeuBgpIlcqJYgAJ7A0HEAhB3TkqZBzVzOLVMqkfH97xFSCh4sVKE7w0sLnft1kEAAAc0SURBVFDW7umJ2VBKAMWi7qR6QkILvzVUSCpJNcAuGiilB6MXsLgTfO2eHgko2g2C6Fe6LHYGvoisYekaCQLzGDYVlN2/2VwWSm2qqau0WqZ55mIkFJJSSg/C1GBxgbL2EHwrUHhoeio4vF/iTG+IZnECLlSOIEP/xjyP1cENwtwYnKOWadq8KKDghUtLKtSJU4JlGGafncpWoGgWQUoZqAuaYyVS6rbegzlfGxTaNi0OKPTimoPUtZ3Ey00BlmGY1QPFDb9PGWPpnpJGTOlZc/t9sUAhaQV/Qlycsyo0gNIPUAZM4ohbNFD4q5Oxa45gcYGyZsOspPLEkgWlfu3dGJNe1IvU96l532qAUhsuNVUhH1Cuu+7dm9rnt9SceKl1twbKkEhsI7VKoFAXzUVqGZ6e3ZNa2s8T2gDHw9hpwx1qxl6Xew4f9q6cAZQBFFsPPOMZqmFnQUNKSC6+YKu1JlvSSCgcKOh/JBs668JD23nh22gnZS3rxZtjntgT3LBqCcXt71oSCz0nFS4DKOkSipRdDTWXTNI8wRru6pEDKJ7hqA0WklzwpzZF4TDM6jw97oHfAyhteTOAEunvFmBxH88jOwEbChF3ozzXHDErqT18g6AGKBiDUOb3ngLY2qIh7WkDKIp+mwIsUrMGUMI9NIAizZ56vw+gGPq2N7AMw6x/8FKAEjs5bxhl9YtkAEXfVzsladNWLNNWQrXmWwZQygElFLI/3Ma2aTmAYuuvPaWnlFrWGjFbw4YS8/TUSFOQOe26vX0ApdDQ1MxjEWriWu0oElC4+kJHXmgSPYcMswMo+kUygKLvK3XJVnAZQPEPSWmglM7Mpp5IMyw4gFJ50Li9BY8qvTlxjXaUWhJKyDA7gKJfJAMo+r4qUjKWhYseAOjwjFuhIxZQfo12FAtQ0EeArkblCdlRhmFWP/UHUPR9NVnJM0497YFQblEAZY07j2NQcSWNXKBg4IcdRTf9B1B0/TRpqVhG/2FH2Ts0qUBBTSHD7FB7dEtgAEXXT5OWkg4yG3aU3cOTA5RhR8mb6gMoef3X5G4p8fawo9QHyrCj6Kb6AIqunyYvFVN7BlB2D48b9aq1oaCWWJLrYUeRl8EAitxHXZQYdpTdwxAzyuYAZeRGyZvuAyh5/dfsbkntWZsdxQIUHN961TXXq8bKzafCbxqGWbkLB1DkPuqmRMx9vLYzjy1AIde6diBHbhRtT+0tN4CS3nfN75TsKGuKR5ESVd9ww40741MSKPtPHL98HKMRnvoDKM2xkP7AmPt4jfEoIai4dpABlPQ5Z71zAMXaYxOWH3YUnWE2FyixLPjD0xNfAAMoEwIi5dGS2vOJ2z6ZUu0s79FKKNq8stQJMaAMw+wAyiwXS6jRQ+15tmdiQHHP5rnjrs+o58EAirqr9hQcEkp6301yZ0ztoWRCV1x55SRta/3QAZTWPS4/bwBF7qPuSsTUnjXFo9QASiwOBRNhqDxD5ekOCLkNGnaUp3uwFFAAEVw44/jb33xw456BxMdrGGUHUHLXb3f3S2oP7AWnn/mK7tpdukGxWBT3KI1r3/uePY8ngOCHGEToxrFBUB7BofLIfdRliVjU7FB79uY14ScyauDhG/RxiqC8FAZQ5D7qskRM7VlTGH5ISgmFz+cM5lB35N4bQJH7qMsSMffxmtJChoASc/2mDOgwxup6bQBF10/dlRp2lLhhthRQoOYgYfgjjz36/u4mQYcNGkDpcFC0TRru47CnJ5YoSdu/kEoOnDh++9gMqO2xzWYARd9X3ZWU1J61hOH71J5YoqTQQEIawW+QSAAS/H3AxDbtB1Bs/dVV6aH2hNUeDVA4QFDTgEj+9B5Aye/DSWsYao9f7YkBhewiAyDlp+4ASvk+bVrj2qNmtdGyfFBGgFq9KTqAUq9vm9S8ZrVHOpI0lspxZF6rMz0HUOr0a9Na16b2SCChzg+5joeEUm96DqDU69tmNa9F7dGCZACl2dTb86ABlOn6vtiTl672WEFCHTsO7So2xdQVDaCou6rvgtJBYIcuOntz1oWHNueed+4sdiKnQoSPUszTM/bl1JnPAyh1+rV5rTGg8MZg1+05rz5v85KDP+8SMKVA8t2vHdn84NhzNvccPuwdi7E3p84UHUCp06/Na5Uy4vsaRFv6ARhcl15y8VaCoatVTpUciFByJAIIEiThklIUDKDUmaIDKHX6dZJatVKK1DiSYggyVJ5gUwI0KRBx4YF2SRnWQu86gCLNgrTfB1DS+q3Lu2J7e3IbzBMUkURDapNbN5dy3N8IClJ7SOIgaFB5SfKQ6qXfhw1F21O2cgMotv7qunSK2lP6hTh4LHWXAoXmmUM60fRSWpkBlLR+6/auUmpPty+Y2bAR1JbZgcLtAyh1+7d57T1IKc1fWvnAkd9E2VEZxQZQMjqv11sBleP7D7xj/2Zz2cl9m/N7bWerdvHdxSO/Sd1e//8EcbE83J2YHQAAAABJRU5ErkJggg==;" vertex="1" parent="1">
                    <mxGeometry x="270" y="72" width="80.27" height="106" as="geometry"/>
                </mxCell>
                <mxCell id="9" value="" style="sketch=0;aspect=fixed;html=1;points=[];align=center;image;fontSize=12;image=img/lib/mscae/Docker.svg;" vertex="1" parent="1">
                    <mxGeometry x="290" y="200" width="50" height="41" as="geometry"/>
                </mxCell>
                <mxCell id="10" value="App docker image" style="text;html=1;strokeColor=none;fillColor=none;align=center;verticalAlign=middle;whiteSpace=wrap;rounded=0;" vertex="1" parent="1">
                    <mxGeometry x="270" y="241" width="100" height="30" as="geometry"/>
                </mxCell>
                <mxCell id="16" style="edgeStyle=none;html=1;" edge="1" parent="1" source="11" target="13">
                    <mxGeometry relative="1" as="geometry"/>
                </mxCell>
                <mxCell id="11" value="" style="outlineConnect=0;dashed=0;verticalLabelPosition=bottom;verticalAlign=top;align=center;html=1;shape=mxgraph.aws3.ecr;fillColor=#F58534;gradientColor=none;" vertex="1" parent="1">
                    <mxGeometry x="550" y="50" width="70" height="70" as="geometry"/>
                </mxCell>
                <mxCell id="13" value="" style="sketch=0;points=[[0,0,0],[0.25,0,0],[0.5,0,0],[0.75,0,0],[1,0,0],[0,1,0],[0.25,1,0],[0.5,1,0],[0.75,1,0],[1,1,0],[0,0.25,0],[0,0.5,0],[0,0.75,0],[1,0.25,0],[1,0.5,0],[1,0.75,0]];outlineConnect=0;fontColor=#232F3E;gradientColor=#F78E04;gradientDirection=north;fillColor=#D05C17;strokeColor=#ffffff;dashed=0;verticalLabelPosition=bottom;verticalAlign=top;align=center;html=1;fontSize=12;fontStyle=0;aspect=fixed;shape=mxgraph.aws4.resourceIcon;resIcon=mxgraph.aws4.ec2;" vertex="1" parent="1">
                    <mxGeometry x="564" y="178" width="43" height="43" as="geometry"/>
                </mxCell>
                <mxCell id="15" style="edgeStyle=none;html=1;entryX=0.5;entryY=1;entryDx=0;entryDy=0;entryPerimeter=0;" edge="1" parent="1" source="14" target="13">
                    <mxGeometry relative="1" as="geometry"/>
                </mxCell>
                <mxCell id="14" value="" style="sketch=0;aspect=fixed;html=1;points=[];align=center;image;fontSize=12;image=img/lib/mscae/Docker.svg;" vertex="1" parent="1">
                    <mxGeometry x="560" y="260" width="50" height="41" as="geometry"/>
                </mxCell>
                <mxCell id="17" value="pull mongo &amp;amp; mongo express from docker hub" style="text;html=1;strokeColor=none;fillColor=none;align=center;verticalAlign=middle;whiteSpace=wrap;rounded=0;" vertex="1" parent="1">
                    <mxGeometry x="449.5" y="301" width="260.5" height="30" as="geometry"/>
                </mxCell>
                <mxCell id="20" value="push artifacts to ECR" style="text;html=1;strokeColor=none;fillColor=none;align=center;verticalAlign=middle;whiteSpace=wrap;rounded=0;" vertex="1" parent="1">
                    <mxGeometry x="404" y="50" width="160" height="30" as="geometry"/>
                </mxCell>
                <mxCell id="22" value="" style="dashed=0;outlineConnect=0;html=1;align=center;labelPosition=center;verticalLabelPosition=bottom;verticalAlign=top;shape=mxgraph.weblogos.mongodb" vertex="1" parent="1">
                    <mxGeometry x="528.8" y="262" width="21.2" height="39" as="geometry"/>
                </mxCell>
            </root>
        </mxGraphModel>
    </diagram>
</mxfile>